<?xml version="1.0" encoding="UTF-8" standalone="no"?>
<!-- Created with Inkscape (http://www.inkscape.org/) -->

<svg
   xmlns:dc="http://purl.org/dc/elements/1.1/"
   xmlns:cc="http://creativecommons.org/ns#"
   xmlns:rdf="http://www.w3.org/1999/02/22-rdf-syntax-ns#"
   xmlns:svg="http://www.w3.org/2000/svg"
   xmlns="http://www.w3.org/2000/svg"
   xmlns:sodipodi="http://sodipodi.sourceforge.net/DTD/sodipodi-0.dtd"
   xmlns:inkscape="http://www.inkscape.org/namespaces/inkscape"
   width="300"
   height="332.45901"
   id="svg2"
   version="1.1"
   inkscape:version="0.48.3.1 r9886"
   sodipodi:docname="red.svg">
  <defs
     id="defs4" />
  <sodipodi:namedview
     id="base"
     pagecolor="#ffffff"
     bordercolor="#666666"
     borderopacity="1.0"
     inkscape:pageopacity="0.0"
     inkscape:pageshadow="2"
     inkscape:zoom="1"
     inkscape:cx="273.04244"
     inkscape:cy="170.31376"
     inkscape:document-units="px"
     inkscape:current-layer="layer1"
     showgrid="false"
     fit-margin-top="0"
     fit-margin-left="0"
     fit-margin-right="0"
     fit-margin-bottom="0"
     inkscape:window-width="1440"
     inkscape:window-height="886"
     inkscape:window-x="0"
     inkscape:window-y="14"
     inkscape:window-maximized="0" />
  <metadata
     id="metadata7">
    <rdf:RDF>
      <cc:Work
         rdf:about="">
        <dc:format>image/svg+xml</dc:format>
        <dc:type
           rdf:resource="http://purl.org/dc/dcmitype/StillImage" />
        <dc:title></dc:title>
      </cc:Work>
    </rdf:RDF>
  </metadata>
  <g
     inkscape:label="Layer 1"
     inkscape:groupmode="layer"
     id="layer1"
     transform="translate(-101.95756,-370.21692)">
    <g
       transform="matrix(4.6630237,0,0,4.6630237,-1373.4705,-806.72444)"
       style="font-size:72px;font-style:normal;font-variant:normal;font-weight:normal;font-stretch:normal;text-align:center;line-height:125%;letter-spacing:0px;word-spacing:0px;writing-mode:lr-tb;text-anchor:middle;fill:#d40000;fill-opacity:1;stroke:none;font-family:NovaMono;-inkscape-font-specification:NovaMono"
       id="flowRoot2985">
      <path
         d="m 338.27734,291.28156 c -0.77346,-1.21872 -1.16018,-2.67184 -1.16015,-4.35937 -3e-5,-1.68747 0.38669,-3.12887 1.16015,-4.32422 0.77341,-1.21871 1.69919,-1.82809 2.77735,-1.82812 1.07809,3e-5 2.00387,0.60941 2.77734,1.82812 0.77341,1.19535 1.16012,2.63675 1.16016,4.32422 -4e-5,1.68753 -0.38675,3.14065 -1.16016,4.35937 -0.77347,1.19534 -1.69925,1.793 -2.77734,1.79297 -1.07816,3e-5 -2.00394,-0.59763 -2.77735,-1.79297 m 5.23828,-2.77734 c -0.39846,3e-5 -0.86721,0.36331 -1.40625,1.08984 -0.51565,0.70316 -0.77346,1.33597 -0.77343,1.89844 -3e-5,0.4219 0.15231,0.63284 0.45703,0.63281 0.39841,3e-5 0.86715,-0.36325 1.40625,-1.08984 0.53903,-0.72653 0.80856,-1.37106 0.80859,-1.93359 -3e-5,-0.39841 -0.16409,-0.59763 -0.49219,-0.59766 M 358,282.59797 c 0.77339,1.19535 1.16011,2.63675 1.16016,4.32422 -5e-5,1.68753 -0.38677,3.14065 -1.16016,4.35937 -0.77348,1.19534 -1.69926,1.793 -2.77734,1.79297 -1.07817,3e-5 -2.00395,-0.59763 -2.77735,-1.79297 -0.77348,-1.21872 -1.16019,-2.67184 -1.16015,-4.35937 -4e-5,-1.68747 0.38667,-3.12887 1.16015,-4.32422 0.7734,-1.21871 1.69918,-1.82809 2.77735,-1.82812 1.07808,3e-5 2.00386,0.60941 2.77734,1.82812 m -0.35156,5.90625 c -0.39849,3e-5 -0.85552,0.36331 -1.3711,1.08984 -0.51567,0.70316 -0.77348,1.33597 -0.77343,1.89844 -5e-5,0.4219 0.1523,0.63284 0.45703,0.63281 0.39839,3e-5 0.85542,-0.36325 1.37109,-1.08984 0.53902,-0.72653 0.80855,-1.37106 0.80859,-1.93359 -4e-5,-0.39841 -0.1641,-0.59763 -0.49218,-0.59766 m -13.21875,26.50781 c -0.25785,-0.46874 -0.38675,-1.01952 -0.38672,-1.65234 -3e-5,-0.63281 0.12887,-1.17187 0.38672,-1.61719 0.25778,-0.46874 0.57418,-0.70312 0.94922,-0.70312 0.37496,0 0.69137,0.23438 0.94921,0.70312 0.25778,0.44532 0.38669,0.98438 0.38672,1.61719 -3e-5,0.63282 -0.12894,1.1836 -0.38672,1.65234 -0.25784,0.44532 -0.57425,0.66797 -0.94921,0.66797 -0.37504,0 -0.69144,-0.22265 -0.94922,-0.66797 m 8.29687,-3.26953 c 0.25777,0.44532 0.38668,0.98438 0.38672,1.61719 -4e-5,0.63282 -0.12895,1.1836 -0.38672,1.65234 -0.25785,0.44532 -0.57426,0.66797 -0.94922,0.66797 -0.37504,0 -0.69144,-0.22265 -0.94922,-0.66797 -0.25785,-0.46874 -0.38675,-1.01952 -0.38671,-1.65234 -4e-5,-0.63281 0.12886,-1.17187 0.38671,-1.61719 0.25778,-0.46874 0.57418,-0.70312 0.94922,-0.70312 0.37496,0 0.69137,0.23438 0.94922,0.70312 m -7.41797,6.53906 c 0.91403,0.42188 2.00387,0.63282 3.26953,0.63282 1.26559,0 2.35543,-0.21094 3.26954,-0.63282 0.91402,-0.42187 1.64058,-0.96093 2.17968,-1.61718 0.53902,-0.67969 0.9609,-1.55859 1.26563,-2.63672 0.32808,-1.10156 0.53902,-2.15625 0.63281,-3.16406 0.11714,-1.03125 0.19917,-2.27343 0.24609,-3.72657 l 0.5625,-11.03906 4.71094,0.21094 -0.42187,8.82422 c 1.38276,-0.72655 2.73041,-1.53514 4.04297,-2.42578 1.33588,-0.89061 2.67181,-1.95702 4.00781,-3.19922 1.35931,-1.26561 2.54291,-2.57811 3.55078,-3.9375 1.00775,-1.35935 1.82806,-2.89451 2.46094,-4.60547 0.63275,-1.73435 0.94915,-3.49216 0.94922,-5.27344 -7e-5,-1.73434 -0.39851,-3.49215 -1.19532,-5.27344 -0.7735,-1.78121 -1.80475,-3.31636 -3.09375,-4.60547 -1.12506,-1.19526 -2.44927,-2.26167 -3.97265,-3.19921 1.71088,-0.82027 3.14056,-1.99214 4.28906,-3.51563 1.14838,-1.54682 1.72259,-3.35151 1.72266,-5.41406 -7e-5,-1.89838 -0.57428,-3.45697 -1.72266,-4.67578 -1.1485,-1.24213 -2.6485,-1.86322 -4.5,-1.86328 -1.94537,6e-5 -3.67974,0.63287 -5.20313,1.89843 -1.52348,1.24225 -2.68364,2.82428 -3.48046,4.7461 -0.77349,1.92192 -1.16021,3.96099 -1.16016,6.11718 -5e-5,1.54693 0.21089,3.05864 0.63281,4.53516 l -4.57031,1.33594 c -0.5391,-1.94527 -0.80864,-3.9023 -0.80859,-5.8711 -5e-5,-0.63276 0.0117,-1.11323 0.0351,-1.4414 -0.98441,-0.0703 -2.46097,-0.10542 -4.42969,-0.10547 -1.96878,5e-5 -3.44534,0.0352 -4.42968,0.10547 0.0234,0.32817 0.0351,0.80864 0.0351,1.4414 -3e-5,1.9688 -0.26956,3.92583 -0.80859,5.8711 l -4.57031,-1.33594 c 0.42184,-1.47652 0.63278,-2.98823 0.63281,-4.53516 -3e-5,-2.15619 -0.39847,-4.19526 -1.19531,-6.11718 -0.77347,-1.92182 -1.9219,-3.50385 -3.44532,-4.7461 -1.52345,-1.26556 -3.25783,-1.89837 -5.20312,-1.89843 -1.85158,6e-5 -3.35158,0.62115 -4.5,1.86328 -1.14845,1.21881 -1.72267,2.7774 -1.72266,4.67578 -10e-6,2.06255 0.57421,3.86724 1.72266,5.41406 1.14842,1.52349 2.57811,2.69536 4.28906,3.51563 -1.52345,0.93754 -2.84767,2.00395 -3.97265,3.19921 -1.28908,1.28911 -2.33205,2.82426 -3.12891,4.60547 -0.77345,1.78129 -1.16017,3.5391 -1.16016,5.27344 -10e-6,1.78128 0.3164,3.53909 0.94922,5.27344 0.6328,1.71096 1.45312,3.24612 2.46094,4.60547 1.0078,1.35939 2.17967,2.67189 3.51562,3.9375 1.35936,1.2422 2.6953,2.30861 4.00782,3.19922 1.33591,0.89064 2.69529,1.69923 4.07812,2.42578 l -0.42187,-8.82422 4.71093,-0.21094 0.5625,11.03906 c 0.0469,1.45314 0.11716,2.69532 0.21094,3.72657 0.11716,1.00781 0.3281,2.0625 0.63281,3.16406 0.3281,1.07813 0.76169,1.95703 1.30079,2.63672 0.53903,0.65625 1.26559,1.19531 2.17968,1.61718 m -2.07422,-54.49218 c 1.78122,-0.14057 3.56247,-0.21089 5.34375,-0.21094 1.78122,5e-5 3.56246,0.0704 5.34375,0.21094 1.00777,-3.14057 2.69527,-5.82416 5.0625,-8.05078 2.36714,-2.2265 5.22651,-3.33978 8.57813,-3.33985 3.25775,7e-5 5.89447,1.07819 7.91016,3.23438 2.03899,2.13287 3.05852,4.8399 3.05859,8.12109 -7e-5,3.23443 -1.08991,6.18755 -3.26953,8.85938 3.65618,4.03129 5.4843,8.39066 5.48437,13.07812 -7e-5,2.53128 -0.44538,4.96878 -1.33593,7.3125 -0.86726,2.34377 -2.07429,4.46487 -3.6211,6.36328 -1.5235,1.87502 -3.17584,3.5508 -4.95703,5.02735 -1.78131,1.47657 -3.7149,2.81251 -5.80078,4.00781 l 14.58984,0.91406 -0.14062,2.39063 -18.70313,-1.23047 -0.0351,0.0351 c -0.0469,0.72657 -0.11724,1.45313 -0.21094,2.17969 l 17.82422,6.11719 -0.77344,2.25 -17.54297,-6.04688 c -0.75005,2.55469 -2.12114,4.64063 -4.11328,6.25782 -1.96879,1.61718 -4.41801,2.42577 -7.34766,2.42578 -2.92972,-10e-6 -5.39065,-0.8086 -7.38281,-2.42578 -1.96878,-1.61719 -3.32815,-3.70313 -4.07812,-6.25782 l -17.54297,6.04688 -0.77344,-2.25 17.82422,-6.11719 c -0.0938,-0.72656 -0.16409,-1.45312 -0.21094,-2.17969 l -0.0351,-0.0351 -18.70313,1.23047 -0.14062,-2.39063 14.58984,-0.91406 c -2.08596,-1.1953 -4.01955,-2.53124 -5.80078,-4.00781 -1.78126,-1.47655 -3.44533,-3.15233 -4.99219,-5.02735 -1.52345,-1.89841 -2.73048,-4.01951 -3.62109,-6.36328 -0.8672,-2.34372 -1.30079,-4.78122 -1.30078,-7.3125 -1e-5,-4.68746 1.82811,-9.04683 5.48437,-13.07812 -2.17969,-2.67183 -3.26954,-5.62495 -3.26953,-8.85938 -10e-6,-3.28119 1.0078,-5.98822 3.02344,-8.12109 2.03905,-2.15619 4.68748,-3.23431 7.94531,-3.23438 3.35154,7e-5 6.21091,1.11335 8.57812,3.33985 2.36716,2.22662 4.05466,4.91021 5.0625,8.05078"
         style=""
         id="path3041" />
    </g>
  </g>
</svg>
